HIERARCHY
ROOT Hips
{
  OFFSET 0.000000 0.000000 0.000000
  CHANNELS 6 Xposition Yposition Zposition Zrotation Yrotation Xrotation
  JOINT Spine
  {
    OFFSET 0.001008 1.818775 -0.004121
    CHANNELS 3 Zrotation Yrotation Xrotation
    JOINT Spine1
    {
      OFFSET 0.003221 1.819335 -0.039618
      CHANNELS 3 Zrotation Yrotation Xrotation
      JOINT Spine2
      {
        OFFSET 0.002434 1.813855 -0.036328
        CHANNELS 3 Zrotation Yrotation Xrotation
        JOINT Neck
        {
          OFFSET -0.137954 1.661923 0.226496
          CHANNELS 3 Zrotation Yrotation Xrotation
          JOINT Head
          {
            OFFSET 0.041086 1.725018 -0.167835
            CHANNELS 3 Zrotation Yrotation Xrotation
            End Site
            {
              OFFSET 0 0 0
            }
          }
        }
        JOINT LeftShoulder
        {
          OFFSET 3.254464 1.419826 0.321059
          CHANNELS 3 Zrotation Yrotation Xrotation
          JOINT LeftArm
          {
            OFFSET 4.054440 -0.000000 -0.000000
            CHANNELS 3 Zrotation Yrotation Xrotation
            JOINT LeftForeArm
            {
              OFFSET 3.212050 -0.000000 0.000000
              CHANNELS 3 Zrotation Yrotation Xrotation
              JOINT LeftHand
              {
                OFFSET 0.707407 -0.000000 0.000000
                CHANNELS 3 Zrotation Yrotation Xrotation
                JOINT LeftHandIndex1
                {
                  OFFSET 0.570330 -0.000000 0.000000
                  CHANNELS 3 Zrotation Yrotation Xrotation
                  End Site
                  {
                    OFFSET 0 0 0
                  }
                }
              }
            }
          }
        }
        JOINT RightShoulder
        {
          OFFSET -3.300070 1.254854 0.339466
          CHANNELS 3 Zrotation Yrotation Xrotation
          JOINT RightArm
          {
            OFFSET -3.740480 -0.000000 -0.000000
            CHANNELS 3 Zrotation Yrotation Xrotation
            JOINT RightForeArm
            {
              OFFSET -3.160300 -0.000000 0.000000
              CHANNELS 3 Zrotation Yrotation Xrotation
              JOINT RightHand
              {
                OFFSET -0.717028 -0.000000 0.000000
                CHANNELS 3 Zrotation Yrotation Xrotation
                JOINT RightHandIndex1
                {
                  OFFSET -0.578086 -0.000000 0.000000
                  CHANNELS 3 Zrotation Yrotation Xrotation
                  End Site
                  {
                    OFFSET 0 0 0
                  }
                }
              }
            }
          }
        }
      }
    }
  }
  JOINT LeftUpLeg
  {
    OFFSET 2.339509 -6.427754 0.000000
    CHANNELS 3 Zrotation Yrotation Xrotation
    JOINT LeftLeg
    {
      OFFSET 2.305232 -6.333578 0.000000
      CHANNELS 3 Zrotation Yrotation Xrotation
      JOINT LeftFoot
      {
        OFFSET 0.053877 -0.148566 1.538626
        CHANNELS 3 Zrotation Yrotation Xrotation
        JOINT LeftToeBase
        {
          OFFSET 0.000000 -0.000000 0.792077
          CHANNELS 3 Zrotation Yrotation Xrotation
          End Site
          {
            OFFSET 0 0 0
          }
        }
      }
    }
  }
  JOINT RightUpLeg
  {
    OFFSET -2.265339 -6.223972 0.000000
    CHANNELS 3 Zrotation Yrotation Xrotation
    JOINT RightLeg
    {
      OFFSET -2.270366 -6.237786 0.000000
      CHANNELS 3 Zrotation Yrotation Xrotation
      JOINT RightFoot
      {
        OFFSET -0.095432 -0.262197 1.626155
        CHANNELS 3 Zrotation Yrotation Xrotation
        JOINT RightToeBase
        {
          OFFSET -0.000000 -0.000000 0.839909
          CHANNELS 3 Zrotation Yrotation Xrotation
          End Site
          {
            OFFSET 0 0 0
          }
        }
      }
    }
  }
}
MOTION
Frames: 6
Frame Time: 0.00833333
13.112900 13.462800 -9.371670 -334.962000 -35.931200 58.362200 -10.845200 -2.106900 -37.860100 0.000000 0.000000 12.872300 -18.634600 0.000000 -5.497730 0.000000 0.000000 16.112700 33.006000 -13.081100 -123.032000 0.000000 0.000000 76.862300 23.864600 0.000000 25.512800 0.000000 0.000000 -64.027500 13.526000 -5.179040 30.218200 5.115590 -1.808290 5.547640 -1.034120 -1.165480 -9.594240 -1.254660 -2.232990 -27.878700 1.360560 -1.206200 7.411610 -0.000000 -0.000000 0.000000 68.078900 4.712790 0.215241 0.000000 0.000000 26.140600 -25.354700 0.000000 -32.660000 0.000000 0.000000 7.125020 -0.000000 -0.000000 0.000000 -49.706900 0.698180 0.839225 0.000000 0.000000 32.759900 7.677340 0.000000 -28.209200 0.000000 0.000000 7.125020
13.164900 13.475600 -9.446180 -336.323000 -33.294400 58.691700 -10.062200 -2.045030 -37.838100 0.000000 0.000000 12.430600 -17.365200 0.000000 -7.301300 0.000000 0.000000 23.352200 33.263400 -13.198600 -121.968000 0.000000 0.000000 76.768000 24.009400 0.000000 25.235700 0.000000 0.000000 -63.884900 13.626500 -5.179690 30.784700 4.966970 -1.671500 5.459730 -1.262220 -1.120020 -9.912520 -0.964134 -2.090980 -27.681100 1.280770 -1.155670 7.352770 -0.000000 0.000000 0.000000 68.839300 4.177840 -0.212778 0.000000 0.000000 26.665100 -25.553000 0.000000 -32.505400 0.000000 0.000000 7.125020 -0.000000 0.000000 0.000000 -49.499100 0.037194 0.917129 0.000000 0.000000 32.946600 7.936910 0.000000 -26.764300 0.000000 0.000000 7.125020
13.213400 13.489100 -9.509730 -337.360000 -31.032600 58.854100 -9.733360 -2.213820 -37.855000 0.000000 0.000000 12.246500 -15.066900 0.000000 -8.530310 0.000000 0.000000 31.783100 32.983800 -13.460200 -120.823000 0.000000 0.000000 76.603600 23.586000 0.000000 25.270300 0.000000 0.000000 -63.839700 13.288500 -5.131000 31.074300 4.673750 -1.693980 5.513420 -1.387140 -1.119000 -9.985700 -0.483728 -1.836940 -27.609400 1.187470 -1.057960 7.255770 -0.000000 -0.000000 0.000000 69.599200 4.315610 -0.178861 0.000000 0.000000 26.327400 -25.742400 0.000000 -32.407500 0.000000 0.000000 7.125020 -0.000000 -0.000000 0.000000 -49.489000 -0.780629 1.000240 0.000000 0.000000 33.030600 8.473420 0.000000 -24.645400 0.000000 0.000000 7.125020
13.259100 13.502200 -9.564110 -338.476000 -29.050300 58.981400 -9.344130 -2.657870 -37.672000 0.000000 0.000000 12.133600 -12.016800 0.000000 -9.430930 0.000000 0.000000 41.544800 32.639100 -13.487200 -119.590000 0.000000 0.000000 76.468100 22.334300 0.000000 25.679600 0.000000 0.000000 -64.422000 12.611800 -4.958550 31.307600 4.338670 -1.703240 5.672820 -1.397410 -1.095870 -9.921320 0.228646 -1.461190 -27.676600 1.017300 -0.916975 7.154330 -0.000000 -0.000000 0.000000 70.370400 4.855170 0.075010 0.000000 0.000000 25.555900 -25.465800 0.000000 -32.586500 0.000000 0.000000 7.125020 -0.000000 -0.000000 0.000000 -49.527700 -1.499350 1.053680 0.000000 0.000000 33.152000 8.481850 0.000000 -23.794600 0.000000 0.000000 7.125020
13.291700 13.514900 -9.617520 -340.097000 -27.067300 59.095600 -8.699870 -2.458630 -37.112700 0.000000 0.000000 12.281600 -18.192100 0.000000 -4.261800 0.000000 0.000000 29.318800 32.597900 -12.940800 -117.973000 0.000000 0.000000 76.190000 21.223300 0.000000 25.583900 0.000000 0.000000 -64.789300 11.654500 -4.520200 31.848300 4.256220 -1.402250 5.789870 -1.095510 -0.937187 -9.993760 0.725485 -1.088550 -27.577100 0.882258 -0.748460 7.062940 -0.000000 0.000000 0.000000 71.522800 5.911850 0.244968 0.000000 0.000000 24.393600 -25.554600 0.000000 -32.953100 0.000000 0.000000 7.125020 -0.000000 0.000000 0.000000 -49.340600 -1.977010 0.875842 0.000000 0.000000 33.237000 7.572060 0.000000 -24.364600 0.000000 0.000000 7.125020
13.317500 13.539500 -9.664540 -341.767000 -25.096600 58.940700 -8.323630 -1.726240 -36.298800 0.000000 0.000000 12.772100 -22.895400 0.000000 0.946210 0.000000 0.000000 32.494100 32.766700 -12.300600 -116.022000 0.000000 0.000000 75.699800 20.786000 0.000000 24.934500 0.000000 0.000000 -64.550600 11.305300 -4.406350 32.844500 3.676660 -1.283240 5.701250 -1.499620 -0.890360 -10.381400 1.103960 -0.778544 -27.543100 0.927587 -0.590032 7.041680 0.000000 -0.000000 0.000000 71.843600 6.426450 -0.015753 0.000000 0.000000 23.535300 -25.609900 0.000000 -33.368400 0.000000 0.000000 7.125020 0.000000 -0.000000 0.000000 -49.848800 -2.537890 0.397541 0.000000 0.000000 33.120200 6.520790 0.000000 -25.895500 0.000000 0.000000 7.125020
